<?xml version="1.0" standalone="no"?>
<!DOCTYPE svg PUBLIC "-//W3C//DTD SVG 20010904//EN"
 "http://www.w3.org/TR/2001/REC-SVG-20010904/DTD/svg10.dtd">
<svg version="1.0" xmlns="http://www.w3.org/2000/svg"
 width="1024.000000pt" height="1024.000000pt" viewBox="0 0 1024.000000 1024.000000"
 preserveAspectRatio="xMidYMid meet">

<g transform="translate(0.000000,1024.000000) scale(0.100000,-0.100000)"
fill="#000000" stroke="none">
<path d="M4870 9600 c-58 -4 -127 -10 -155 -13 -27 -3 -81 -9 -120 -12 -288
-27 -825 -171 -1165 -313 -484 -201 -883 -456 -1281 -818 -261 -238 -477 -492
-672 -791 -115 -176 -109 -167 -184 -303 -194 -352 -370 -817 -449 -1188 -26
-123 -37 -185 -68 -412 -8 -58 -18 -139 -21 -180 -4 -41 -9 -88 -12 -105 -7
-42 -7 -565 0 -600 4 -17 9 -68 12 -115 14 -199 60 -472 120 -710 35 -137 118
-397 155 -485 5 -11 32 -76 60 -144 28 -69 69 -159 90 -200 l38 -76 -152 -127
c-83 -70 -200 -168 -261 -218 -76 -63 -118 -107 -135 -138 -24 -45 -25 -53
-24 -232 1 -210 12 -255 75 -303 56 -42 72 -44 609 -92 582 -52 678 -63 701
-79 12 -8 51 -43 87 -78 118 -113 232 -203 496 -395 47 -35 264 -173 271 -173
2 0 39 -21 82 -46 166 -99 501 -250 723 -327 84 -29 271 -86 303 -93 11 -2 34
-8 51 -14 28 -9 279 -62 351 -74 284 -47 477 -59 828 -53 171 3 323 7 337 10
27 5 76 11 215 27 187 22 467 88 700 165 435 144 867 368 1220 633 222 167
298 233 500 436 317 318 599 697 791 1062 25 49 50 94 54 99 24 32 152 338
210 500 140 393 223 791 257 1240 14 172 7 606 -11 766 -53 473 -163 903 -328
1293 -66 154 -187 400 -242 490 -20 33 -36 67 -36 76 0 25 38 325 54 425 8 50
25 152 37 228 32 203 19 279 -62 372 -39 44 -155 122 -228 151 -55 23 -61 24
-464 24 -449 0 -431 -2 -505 64 -139 125 -615 391 -927 519 -378 154 -825 270
-1190 307 -60 6 -126 13 -145 15 -72 9 -489 13 -590 5z m690 -316 c238 -33
528 -96 751 -164 118 -36 335 -114 404 -145 16 -7 73 -32 125 -55 121 -53 362
-180 389 -205 11 -11 -30 -13 -225 -9 -132 2 -486 6 -789 8 -302 3 -705 8
-895 10 -421 6 -1531 18 -1845 20 -229 1 -230 1 -286 -25 -101 -48 -180 -152
-207 -274 -12 -50 -62 -357 -103 -620 -11 -77 -32 -207 -46 -290 -13 -82 -42
-262 -63 -400 -21 -137 -50 -317 -64 -400 -13 -82 -38 -238 -55 -345 -17 -107
-36 -220 -41 -250 -5 -30 -28 -170 -50 -310 -22 -140 -44 -275 -50 -300 -5
-25 -12 -67 -15 -95 -3 -27 -10 -70 -15 -95 -4 -25 -13 -79 -20 -120 -6 -41
-20 -124 -30 -185 -28 -159 -125 -786 -139 -895 -7 -58 -38 -120 -72 -144 -11
-7 -41 -33 -67 -57 -26 -24 -99 -87 -162 -140 -63 -53 -164 -138 -224 -189
-207 -176 -318 -262 -326 -253 -21 20 -144 319 -199 481 -104 307 -175 656
-206 1022 -13 155 -4 577 15 725 5 39 12 97 15 130 20 217 140 710 229 943 75
197 128 312 239 517 118 218 271 449 398 599 9 12 53 64 97 116 99 119 368
382 498 487 394 318 839 564 1279 706 108 35 376 108 445 121 223 43 302 58
340 62 25 3 51 7 58 9 6 3 65 7 130 11 64 4 118 7 120 9 1 1 127 2 280 2 187
1 311 -4 382 -13z m-1580 -719 c305 -3 798 -7 1095 -10 297 -3 720 -7 940 -10
220 -3 879 -7 1465 -11 638 -3 1078 -9 1096 -15 41 -13 63 -38 78 -89 11 -36
8 -67 -16 -228 -15 -103 -44 -299 -63 -437 -20 -137 -51 -356 -70 -485 -19
-129 -73 -509 -120 -845 -76 -537 -174 -1213 -189 -1300 -3 -16 -16 -106 -30
-200 -14 -93 -45 -305 -70 -470 -25 -165 -48 -320 -51 -345 -7 -58 -34 -185
-47 -228 -11 -36 -72 -74 -142 -86 l-38 -7 6 53 c3 29 13 98 21 153 15 95 43
294 85 600 33 243 51 369 55 395 4 27 64 444 70 495 3 17 16 107 29 200 14 94
30 199 35 235 24 173 93 651 111 775 30 199 40 270 50 350 6 39 12 84 15 100
6 39 33 232 51 365 7 58 20 148 29 200 8 52 22 145 31 205 17 125 17 125 34
222 12 68 12 73 -11 120 -17 34 -36 54 -64 69 -40 22 -42 22 -1040 28 -550 3
-1106 8 -1235 11 -326 7 -846 13 -1730 22 -1043 11 -963 12 -997 -13 -46 -35
-63 -77 -84 -206 -10 -68 -32 -208 -49 -313 -16 -104 -43 -275 -60 -380 -16
-104 -50 -314 -74 -465 -25 -151 -61 -378 -81 -505 -106 -670 -176 -1105 -216
-1335 -11 -63 -33 -199 -50 -302 -24 -153 -75 -447 -104 -593 -3 -16 -8 -67
-12 -112 -3 -46 -10 -83 -15 -83 -18 0 -84 39 -105 62 -39 42 -41 77 -11 272
36 238 115 720 133 821 8 44 17 100 20 125 3 25 10 72 16 105 17 92 17 91 40
235 11 74 22 142 24 150 1 8 5 33 9 55 3 22 14 96 25 165 11 69 23 145 26 170
3 25 8 52 10 60 2 8 7 35 10 60 3 25 22 142 41 260 19 118 48 298 65 400 16
102 36 226 44 275 8 50 28 182 45 295 17 113 37 237 45 275 13 72 29 168 65
405 28 181 34 200 74 239 46 45 98 62 171 56 33 -2 310 -7 615 -10z m955 -380
c176 -3 496 -7 710 -10 215 -3 543 -7 730 -10 187 -3 549 -7 805 -10 679 -7
1024 -16 1034 -26 9 -8 -14 -188 -90 -699 -10 -73 -117 -819 -129 -905 -2 -16
-9 -64 -15 -105 -6 -41 -20 -140 -31 -220 -11 -80 -27 -185 -34 -235 -8 -49
-23 -153 -34 -230 -18 -125 -66 -448 -91 -610 -5 -33 -10 -64 -10 -69 0 -8
-273 -2 -400 9 -25 2 -108 6 -185 9 -77 4 -162 9 -190 11 -58 6 -375 22 -585
30 -80 3 -160 8 -179 11 l-35 6 70 40 c38 22 123 72 189 110 133 77 171 108
191 155 31 73 10 132 -70 197 -35 29 -47 47 -51 74 -3 21 -12 68 -19 105 -12
57 -12 78 -1 126 66 280 12 509 -186 796 -206 299 -217 330 -229 686 -12 343
-29 416 -127 520 -95 102 -219 145 -413 143 -140 -1 -253 -40 -350 -120 -35
-30 -101 -132 -121 -189 -19 -53 -48 -270 -69 -505 -6 -69 -14 -136 -17 -150
-13 -56 -97 -200 -163 -280 -87 -105 -225 -302 -275 -392 -72 -133 -145 -336
-145 -407 0 -28 -4 -31 -82 -56 -97 -30 -136 -56 -179 -115 -32 -44 -32 -46
-67 -305 -22 -165 7 -247 107 -297 30 -15 57 -31 60 -34 5 -6 -303 4 -339 11
-8 1 -91 6 -185 10 -93 4 -172 8 -175 10 -3 2 -81 6 -175 10 -93 4 -210 10
-260 14 l-90 6 1 30 c0 17 8 77 17 135 9 58 25 164 36 235 11 72 36 229 55
350 72 450 127 798 130 824 2 14 25 157 50 316 112 700 134 842 142 905 3 30
13 68 21 84 l15 29 556 -7 c307 -3 701 -8 877 -11z m408 -515 c36 -28 61 -110
53 -173 -6 -56 -18 -72 -58 -82 l-26 -7 14 43 c25 72 -2 128 -53 108 -44 -16
-76 -106 -53 -149 14 -26 -1 -42 -35 -38 -45 6 -58 164 -21 237 39 75 124 104
179 61z m422 -11 c20 -18 43 -45 51 -60 21 -41 18 -148 -6 -211 -32 -84 -32
-84 -78 -53 l-41 27 19 39 c20 38 27 114 12 135 -12 19 -50 22 -71 7 -28 -19
-51 -65 -51 -101 0 -38 -5 -42 -47 -29 l-35 11 7 60 c8 74 32 122 84 169 55
49 104 51 156 6z m-445 -149 c0 -21 -15 -27 -25 -10 -7 12 2 30 16 30 5 0 9
-9 9 -20z m397 -24 c-4 -9 -11 -16 -17 -16 -11 0 -14 33 -3 43 11 11 26 -10
20 -27z m-211 -107 c71 -12 226 -86 272 -128 17 -16 32 -39 32 -50 0 -50 -183
-162 -295 -180 -134 -21 -266 19 -345 106 -55 58 -57 99 -8 149 54 57 176 110
259 113 14 1 52 -4 85 -10z m314 -414 c12 -44 52 -152 90 -240 78 -183 104
-265 120 -385 9 -68 9 -203 1 -297 -1 -7 -21 -22 -45 -34 -130 -61 -168 -134
-204 -397 -7 -51 -16 -78 -29 -87 -36 -28 -159 -83 -208 -94 -162 -36 -349
-11 -456 62 -64 43 -339 506 -339 570 0 137 79 355 202 555 68 111 186 346
198 394 l12 45 50 -33 c75 -51 143 -67 257 -62 106 5 169 25 261 81 63 38 56
44 90 -78z m3030 -42 c77 -161 170 -417 215 -585 43 -163 93 -399 105 -493 9
-72 17 -128 25 -180 2 -16 7 -75 11 -130 3 -55 8 -103 10 -107 7 -10 5 -444
-1 -535 -16 -224 -56 -499 -101 -688 -32 -136 -91 -344 -104 -367 -6 -10 -10
-23 -10 -30 0 -20 -93 -266 -143 -378 -115 -258 -268 -519 -459 -780 -148
-202 -496 -567 -708 -742 -124 -101 -280 -222 -280 -215 0 3 25 49 56 103 31
55 75 133 99 174 23 41 51 91 62 111 150 261 445 809 570 1057 l77 154 1 166
c0 92 -4 181 -9 198 -7 28 -5 33 12 39 44 13 67 90 97 325 2 19 15 112 29 205
28 180 73 487 81 545 3 19 19 127 35 240 17 113 37 250 45 305 8 55 28 192 45
305 17 113 38 252 46 310 8 58 31 209 49 335 63 422 105 709 105 717 0 19 10
4 40 -59z m-2704 -378 c50 -105 74 -210 73 -324 -2 -108 -9 -157 -24 -150 -6
2 -9 43 -7 103 4 112 -12 197 -64 346 -18 52 -36 104 -39 115 l-7 20 17 -20
c10 -11 32 -51 51 -90z m-1419 -192 c-14 -37 -30 -94 -37 -125 -7 -32 -17 -55
-22 -52 -13 8 14 123 49 203 33 75 40 57 10 -26z m-142 -353 c48 -16 106 -84
175 -205 35 -60 87 -148 116 -195 80 -130 124 -219 124 -249 0 -41 -41 -113
-78 -138 -63 -41 -110 -40 -246 5 -168 57 -184 61 -382 87 -129 18 -147 76
-110 355 2 14 7 52 11 85 4 33 14 72 21 87 17 33 63 67 110 80 35 9 115 54
162 89 23 18 40 18 97 -1z m1435 -97 c0 -44 37 -108 74 -128 48 -26 127 -16
199 25 42 24 64 30 85 25 26 -5 30 -11 41 -73 17 -86 45 -146 79 -167 45 -29
82 -68 82 -86 0 -29 -60 -83 -144 -128 -44 -24 -124 -72 -178 -108 -148 -96
-220 -128 -295 -128 -76 0 -109 22 -137 88 -19 44 -19 50 -3 139 88 513 84
498 145 548 40 33 52 31 52 -7z m-700 -667 c85 -8 207 -18 271 -21 113 -7 116
-7 132 -35 10 -15 17 -31 17 -34 0 -4 -24 -5 -52 -2 -29 2 -111 8 -183 11 -71
4 -146 8 -165 10 -19 2 -88 7 -152 11 -65 4 -118 9 -118 11 0 2 7 17 15 33 17
32 31 41 60 35 11 -2 90 -11 175 -19z m-1902 -195 c13 -8 13 -12 -14 -161 -31
-172 -74 -433 -72 -435 2 -2 76 -7 166 -12 89 -6 165 -13 169 -17 4 -3 -2 -52
-13 -109 l-19 -102 -75 0 c-97 0 -445 22 -487 31 -29 6 -29 22 -3 156 11 57
40 224 65 371 24 148 47 273 50 278 8 11 215 12 233 0z m717 -33 c8 -8 8 -38
2 -88 -17 -123 -118 -697 -127 -718 -10 -22 -13 -23 -122 -20 l-113 3 -3 26
c-2 14 25 181 58 370 34 189 64 360 67 379 10 60 16 63 131 57 57 -3 105 -7
107 -9z m417 -29 c9 -5 70 -102 135 -216 81 -144 119 -202 122 -188 2 11 18
103 35 205 l32 185 113 -1 c64 -1 117 -6 123 -12 13 -13 -117 -798 -134 -819
-7 -9 -39 -13 -93 -13 -144 0 -133 -8 -226 159 -125 223 -171 302 -174 299 -2
-2 -15 -77 -29 -168 -15 -91 -30 -185 -34 -210 l-7 -45 -65 1 c-189 3 -185 0
-164 111 7 39 38 215 68 391 30 177 57 326 61 333 9 13 208 3 237 -12z m966
-45 c28 -6 28 -25 3 -170 -62 -356 -66 -390 -47 -418 23 -36 54 -46 139 -46
83 0 110 13 126 63 6 17 24 115 41 217 36 220 49 299 56 323 5 15 18 17 97 16
127 -2 151 -8 155 -40 2 -13 -11 -101 -27 -194 -16 -94 -37 -219 -47 -280 -9
-60 -25 -133 -36 -162 -22 -61 -80 -122 -146 -154 -44 -22 -59 -24 -217 -24
-153 0 -177 2 -239 24 -120 41 -186 128 -186 243 0 34 70 463 90 553 6 27 16
52 22 56 10 7 176 1 216 -7z m1019 -70 c12 -13 50 -71 84 -129 33 -58 64 -107
69 -110 4 -2 56 47 115 111 59 63 115 119 124 123 15 9 244 -3 300 -15 22 -5
15 -15 -95 -127 -65 -67 -157 -161 -202 -208 l-84 -86 85 -144 c46 -79 105
-178 130 -219 26 -41 47 -78 47 -83 0 -8 -63 -5 -238 9 -84 7 -73 -4 -177 186
l-59 107 -125 -131 -126 -131 -144 7 c-80 3 -147 9 -150 11 -3 3 29 40 70 83
41 42 117 124 169 182 52 58 104 117 117 131 l23 25 -115 207 c-63 113 -115
213 -115 222 0 14 16 15 138 10 128 -6 138 -8 159 -31z m-3907 -932 c0 -45 -3
-51 -42 -83 -24 -18 -104 -86 -178 -149 -74 -64 -213 -182 -308 -264 -95 -81
-178 -159 -184 -172 -8 -17 -8 -34 -2 -52 8 -23 18 -29 65 -38 31 -6 125 -14
209 -18 84 -4 156 -8 159 -10 3 -2 66 -7 139 -10 73 -4 139 -9 145 -11 7 -2
53 -6 102 -10 146 -9 566 -42 644 -50 25 -3 162 -14 305 -25 144 -11 286 -22
316 -24 30 -3 170 -14 310 -26 140 -11 329 -27 420 -35 91 -8 228 -19 305 -25
136 -10 196 -15 300 -25 28 -2 88 -7 135 -10 47 -3 157 -12 245 -20 88 -8 198
-17 245 -20 47 -3 132 -10 190 -15 58 -5 141 -12 185 -15 44 -3 130 -10 190
-15 61 -5 151 -12 200 -15 50 -4 108 -8 130 -10 221 -21 455 -36 482 -32 54 9
88 42 132 126 l41 79 -88 7 c-49 4 -94 10 -100 14 -6 4 -27 43 -47 86 -79 176
-89 195 -93 190 -3 -3 -15 -62 -26 -133 l-22 -127 -74 0 c-74 0 -75 0 -78 27
-2 16 3 63 12 105 8 43 31 182 52 308 20 127 42 236 48 244 8 10 27 12 79 8
38 -3 71 -7 72 -9 2 -2 -5 -57 -16 -122 -11 -66 -18 -124 -16 -130 2 -5 50 48
107 118 l104 128 90 -6 c49 -3 92 -8 94 -11 7 -7 -17 -40 -118 -160 -51 -60
-104 -124 -117 -142 l-25 -32 84 -174 83 -175 22 37 c12 20 36 63 53 96 18 33
35 65 40 70 9 12 58 103 142 261 59 114 71 161 43 184 -8 7 -15 19 -15 28 0
13 18 14 142 9 77 -4 143 -9 146 -11 5 -6 -96 -194 -278 -521 -646 -1156 -634
-1138 -741 -1170 -80 -23 -114 -22 -539 20 -80 8 -183 17 -230 20 -47 3 -96 8
-110 10 -14 3 -56 7 -95 10 -38 3 -86 8 -105 10 -19 3 -66 7 -105 10 -38 3
-137 12 -220 20 -194 19 -346 34 -520 50 -33 3 -80 7 -105 10 -52 5 -93 9
-330 30 -96 8 -245 22 -330 30 -85 8 -186 17 -225 20 -38 3 -86 8 -105 10 -19
3 -237 23 -485 45 -247 23 -466 43 -485 45 -19 2 -73 7 -120 10 -47 4 -92 8
-100 10 -8 1 -55 6 -105 9 -49 4 -106 9 -125 11 -38 4 -135 13 -215 20 -27 3
-95 9 -150 15 -55 5 -136 12 -180 15 -44 3 -93 8 -110 10 -36 5 -298 30 -530
50 -93 8 -190 17 -215 19 -74 8 -160 15 -250 21 -142 10 -151 13 -164 68 -5
23 -1 33 22 55 44 42 162 145 196 169 16 13 32 26 35 31 11 15 318 276 696
590 114 95 170 142 375 318 303 261 305 262 423 263 l67 1 0 -48z m916 -17 c8
-2 6 -35 -7 -112 -11 -59 -18 -114 -17 -120 2 -7 48 41 103 107 l100 120 87
-3 c48 -2 90 -6 94 -9 3 -4 -51 -75 -120 -158 -69 -83 -126 -155 -126 -159 0
-4 27 -75 59 -158 33 -83 63 -162 67 -177 6 -26 6 -26 -47 -26 -30 0 -71 3
-91 6 l-37 7 -58 145 c-31 81 -59 140 -61 132 -3 -8 -15 -71 -26 -140 l-22
-125 -65 -3 c-45 -2 -69 1 -76 10 -6 9 1 75 22 203 81 483 76 462 113 467 26
4 85 0 108 -7z m-495 -20 c89 -32 122 -85 121 -197 -1 -169 -92 -248 -254
-218 -73 14 -102 47 -94 107 9 66 32 102 79 124 79 35 104 17 68 -51 -22 -43
-20 -66 10 -75 62 -20 103 91 59 162 -44 73 -180 58 -239 -26 -65 -93 -58
-237 12 -281 12 -7 60 -18 107 -25 l85 -11 -2 -35 c-7 -85 -3 -83 -108 -76
-108 7 -154 26 -203 81 -41 47 -56 104 -48 192 8 101 40 176 104 245 83 90
196 121 303 84z m1305 -26 c17 -5 43 -23 59 -39 23 -24 28 -38 28 -82 1 -29
-4 -80 -11 -113 -7 -33 -23 -120 -37 -194 -29 -158 -50 -197 -120 -231 -43
-21 -57 -22 -159 -18 -217 10 -253 59 -207 288 11 52 27 135 36 184 8 48 24
105 35 126 21 41 73 79 124 90 41 8 213 1 252 -11z m495 -25 c113 -7 152 -25
176 -82 14 -34 14 -46 -5 -155 -12 -65 -29 -133 -40 -150 -16 -29 -65 -70 -94
-79 -10 -4 15 -83 57 -182 23 -54 16 -65 -42 -59 -117 10 -106 1 -147 122 -35
101 -39 108 -63 107 -23 -1 -28 -7 -39 -48 -6 -25 -15 -71 -18 -102 l-7 -56
-75 0 c-60 0 -76 3 -81 16 -3 10 6 85 21 168 15 83 29 167 32 186 14 97 58
307 66 317 8 9 33 12 87 8 42 -3 119 -7 172 -11z m489 -29 c213 -9 246 -15
242 -40 -12 -97 -16 -116 -25 -122 -6 -3 -40 -5 -77 -4 l-67 2 -12 -78 c-12
-75 -51 -299 -73 -412 l-10 -54 -69 5 c-38 3 -73 8 -76 12 -4 4 1 53 10 109
23 140 65 377 72 405 5 21 3 22 -57 22 -89 0 -92 4 -78 81 11 57 32 94 49 85
3 -2 80 -7 171 -11z m572 -34 c149 -9 193 -25 216 -76 20 -43 12 -135 -24
-298 -9 -38 -56 -86 -93 -93 -17 -4 -31 -8 -31 -10 0 -2 20 -55 45 -117 25
-63 45 -118 45 -122 0 -13 -162 3 -172 17 -4 7 -22 57 -40 111 -28 85 -35 97
-55 97 -13 0 -26 1 -30 3 -4 1 -15 -42 -24 -96 -9 -54 -21 -103 -26 -108 -15
-15 -153 -1 -153 15 -1 30 115 663 123 674 11 14 31 14 219 3z m546 -31 c8 -1
-95 -632 -114 -694 -6 -17 -13 -18 -77 -13 -38 3 -73 10 -77 14 -5 4 7 91 26
193 19 102 45 253 59 335 15 83 28 156 31 164 4 12 50 13 152 1z m502 -50 c12
-7 10 -36 -19 -207 -65 -391 -71 -410 -135 -457 -24 -19 -41 -21 -140 -20
-122 1 -158 12 -195 60 -24 30 -28 94 -10 157 l10 38 72 -3 72 -3 3 -47 c2
-35 8 -51 22 -58 29 -16 67 -2 78 28 6 15 29 134 51 266 23 131 44 242 47 247
7 12 125 11 144 -1z m-3520 -1585 c212 -19 432 -39 490 -45 58 -6 182 -17 275
-25 278 -24 275 -24 275 -76 0 -46 -19 -52 -127 -40 -54 5 -134 13 -178 16
-44 3 -96 7 -115 10 -19 2 -66 7 -105 10 -38 3 -90 8 -115 10 -47 5 -113 10
-510 45 -129 11 -251 22 -270 25 -19 2 -45 4 -57 5 -17 0 -25 9 -34 39 -17 59
-8 73 43 66 24 -3 216 -21 428 -40z m-592 -236 c119 -11 372 -36 562 -55 190
-19 392 -39 450 -44 58 -5 148 -14 200 -20 184 -21 444 -48 535 -55 39 -3 81
-8 95 -10 14 -2 54 -7 90 -10 36 -3 99 -10 140 -15 86 -11 129 -15 335 -35 83
-8 260 -26 395 -40 257 -26 355 -36 610 -60 85 -9 171 -17 190 -20 50 -6 127
-14 185 -19 144 -14 174 -18 225 -26 30 -5 72 -11 93 -12 20 -1 37 -5 37 -8 0
-3 -62 -36 -137 -74 -403 -201 -914 -340 -1362 -372 -36 -2 -88 -7 -116 -9
-55 -6 -452 -6 -500 0 -16 1 -70 6 -120 10 -453 33 -943 170 -1400 390 -66 32
-116 59 -280 150 -121 67 -466 297 -519 346 -15 14 55 11 292 -12z"/>
<path d="M5706 7221 c-9 -14 -125 -76 -167 -90 -20 -7 -70 -12 -110 -12 -86
-1 -155 23 -207 74 -25 24 -35 28 -44 19 -9 -9 -5 -19 18 -43 85 -89 257 -117
396 -63 52 21 136 74 142 90 6 16 -20 39 -28 25z"/>
<path d="M3256 2960 c-19 -6 -105 -87 -237 -222 -162 -165 -208 -219 -209
-239 -1 -54 -55 -47 895 -129 140 -12 191 -17 340 -30 61 -6 211 -19 335 -30
124 -11 255 -23 292 -26 56 -5 74 -3 111 15 24 12 55 34 68 49 74 82 296 375
311 408 20 43 -12 60 -129 68 -54 4 -145 11 -203 17 -140 12 -183 16 -475 39
-489 39 -981 80 -1025 84 -25 2 -58 0 -74 -4z"/>
<path d="M4121 3714 c-12 -15 -21 -31 -21 -36 0 -5 -11 -74 -25 -155 -24 -137
-24 -147 -9 -165 20 -22 110 -25 138 -5 18 14 32 67 62 246 l17 105 -23 18
c-15 12 -39 18 -70 18 -41 0 -52 -4 -69 -26z"/>
<path d="M4706 3610 c-10 -50 -16 -93 -14 -95 2 -1 31 -5 64 -8 76 -8 87 2
103 93 13 80 7 88 -76 96 l-60 7 -17 -93z"/>
<path d="M5825 3619 c-2 -8 -11 -50 -18 -94 l-14 -80 65 -9 c80 -11 90 -2 108
91 16 85 9 95 -76 101 -44 3 -61 1 -65 -9z"/>
</g>
</svg>
